<svg width="781" height="167" viewBox="0 0 781 167" fill="none" xmlns="http://www.w3.org/2000/svg">
<path d="M172.17 55.716V109.343L164.644 102.757L152.413 114.988L190.046 150.739V14.3198L119.484 82.059L131.715 94.2896L83.7331 141.331L25.4022 82.9998L83.7331 24.6689L123.248 64.1834L135.478 51.0119L84.6739 0.20752H82.7923L0 82.059V82.9998L83.7331 166.733L156.176 93.3488L144.886 82.9998L172.17 55.716Z" fill="#F47922"/>
<path d="M231.392 62.376C232.976 60.0293 235.147 58.1227 237.904 56.656C240.72 55.1893 243.917 54.456 247.496 54.456C251.661 54.456 255.416 55.4827 258.76 57.536C262.163 59.5893 264.832 62.5227 266.768 66.336C268.763 70.0907 269.76 74.4613 269.76 79.448C269.76 84.4347 268.763 88.864 266.768 92.736C264.832 96.5493 262.163 99.512 258.76 101.624C255.416 103.736 251.661 104.792 247.496 104.792C243.859 104.792 240.661 104.088 237.904 102.68C235.205 101.213 233.035 99.336 231.392 97.048V104H219.072V38.88H231.392V62.376ZM257.176 79.448C257.176 76.5147 256.56 73.992 255.328 71.88C254.155 69.7093 252.571 68.0667 250.576 66.952C248.64 65.8373 246.528 65.28 244.24 65.28C242.011 65.28 239.899 65.8667 237.904 67.04C235.968 68.1547 234.384 69.7973 233.152 71.968C231.979 74.1387 231.392 76.6907 231.392 79.624C231.392 82.5573 231.979 85.1093 233.152 87.28C234.384 89.4507 235.968 91.1227 237.904 92.296C239.899 93.4107 242.011 93.968 244.24 93.968C246.528 93.968 248.64 93.3813 250.576 92.208C252.571 91.0347 254.155 89.3627 255.328 87.192C256.56 85.0213 257.176 82.44 257.176 79.448ZM282.961 49.44C280.79 49.44 278.971 48.7653 277.505 47.416C276.097 46.008 275.393 44.2773 275.393 42.224C275.393 40.1707 276.097 38.4693 277.505 37.12C278.971 35.712 280.79 35.008 282.961 35.008C285.131 35.008 286.921 35.712 288.329 37.12C289.795 38.4693 290.529 40.1707 290.529 42.224C290.529 44.2773 289.795 46.008 288.329 47.416C286.921 48.7653 285.131 49.44 282.961 49.44ZM289.033 55.248V104H276.713V55.248H289.033ZM318.301 54.456C321.938 54.456 325.135 55.1893 327.893 56.656C330.65 58.064 332.821 59.912 334.405 62.2V55.248H346.813V104.352C346.813 108.869 345.903 112.888 344.085 116.408C342.266 119.987 339.538 122.803 335.901 124.856C332.263 126.968 327.863 128.024 322.701 128.024C315.778 128.024 310.087 126.411 305.629 123.184C301.229 119.957 298.735 115.557 298.149 109.984H310.381C311.026 112.213 312.405 113.973 314.517 115.264C316.687 116.613 319.298 117.288 322.349 117.288C325.927 117.288 328.831 116.203 331.061 114.032C333.29 111.92 334.405 108.693 334.405 104.352V96.784C332.821 99.072 330.621 100.979 327.805 102.504C325.047 104.029 321.879 104.792 318.301 104.792C314.194 104.792 310.439 103.736 307.037 101.624C303.634 99.512 300.935 96.5493 298.941 92.736C297.005 88.864 296.037 84.4347 296.037 79.448C296.037 74.52 297.005 70.1493 298.941 66.336C300.935 62.5227 303.605 59.5893 306.949 57.536C310.351 55.4827 314.135 54.456 318.301 54.456ZM334.405 79.624C334.405 76.632 333.818 74.08 332.645 71.968C331.471 69.7973 329.887 68.1547 327.893 67.04C325.898 65.8667 323.757 65.28 321.469 65.28C319.181 65.28 317.069 65.8373 315.133 66.952C313.197 68.0667 311.613 69.7093 310.381 71.88C309.207 73.992 308.621 76.5147 308.621 79.448C308.621 82.3813 309.207 84.9627 310.381 87.192C311.613 89.3627 313.197 91.0347 315.133 92.208C317.127 93.3813 319.239 93.968 321.469 93.968C323.757 93.968 325.898 93.4107 327.893 92.296C329.887 91.1227 331.471 89.48 332.645 87.368C333.818 85.1973 334.405 82.616 334.405 79.624ZM403.485 55.248L373.301 127.056H360.189L370.749 102.768L351.213 55.248H365.029L377.613 89.304L390.373 55.248H403.485ZM453.447 78.568C453.447 80.328 453.329 81.912 453.095 83.32H417.455C417.748 86.84 418.98 89.5973 421.151 91.592C423.321 93.5867 425.991 94.584 429.159 94.584C433.735 94.584 436.991 92.6187 438.927 88.688H452.215C450.807 93.3813 448.108 97.2533 444.119 100.304C440.129 103.296 435.231 104.792 429.423 104.792C424.729 104.792 420.505 103.765 416.751 101.712C413.055 99.6 410.151 96.6373 408.039 92.824C405.985 89.0107 404.959 84.6107 404.959 79.624C404.959 74.5787 405.985 70.1493 408.039 66.336C410.092 62.5227 412.967 59.5893 416.663 57.536C420.359 55.4827 424.612 54.456 429.423 54.456C434.057 54.456 438.193 55.4533 441.831 57.448C445.527 59.4427 448.372 62.288 450.367 65.984C452.42 69.6213 453.447 73.816 453.447 78.568ZM440.687 75.048C440.628 71.88 439.484 69.3573 437.255 67.48C435.025 65.544 432.297 64.576 429.071 64.576C426.02 64.576 423.439 65.5147 421.327 67.392C419.273 69.2107 418.012 71.7627 417.543 75.048H440.687ZM472.759 38.88V104H460.439V38.88H472.759ZM495.251 38.88V104H482.931V38.88H495.251ZM527.072 104.792C522.378 104.792 518.154 103.765 514.4 101.712C510.645 99.6 507.682 96.6373 505.512 92.824C503.4 89.0107 502.344 84.6107 502.344 79.624C502.344 74.6373 503.429 70.2373 505.6 66.424C507.829 62.6107 510.85 59.6773 514.664 57.624C518.477 55.512 522.73 54.456 527.424 54.456C532.117 54.456 536.37 55.512 540.184 57.624C543.997 59.6773 546.989 62.6107 549.16 66.424C551.389 70.2373 552.504 74.6373 552.504 79.624C552.504 84.6107 551.36 89.0107 549.072 92.824C546.842 96.6373 543.792 99.6 539.92 101.712C536.106 103.765 531.824 104.792 527.072 104.792ZM527.072 94.056C529.301 94.056 531.384 93.528 533.32 92.472C535.314 91.3573 536.898 89.7147 538.072 87.544C539.245 85.3733 539.832 82.7333 539.832 79.624C539.832 74.9893 538.6 71.44 536.136 68.976C533.73 66.4533 530.768 65.192 527.248 65.192C523.728 65.192 520.765 66.4533 518.36 68.976C516.013 71.44 514.84 74.9893 514.84 79.624C514.84 84.2587 515.984 87.8373 518.272 90.36C520.618 92.824 523.552 94.056 527.072 94.056ZM627.125 55.248L612.869 104H599.581L590.693 69.944L581.805 104H568.429L554.085 55.248H566.581L575.205 92.384L584.533 55.248H597.557L606.709 92.296L615.333 55.248H627.125ZM654.143 65.368H645.607V104H633.111V65.368H627.567V55.248H633.111V52.784C633.111 46.8 634.812 42.4 638.215 39.584C641.617 36.768 646.751 35.448 653.615 35.624V46.008C650.623 45.9493 648.54 46.448 647.367 47.504C646.193 48.56 645.607 50.4667 645.607 53.224V55.248H654.143V65.368ZM666.375 49.44C664.204 49.44 662.385 48.7653 660.919 47.416C659.511 46.008 658.807 44.2773 658.807 42.224C658.807 40.1707 659.511 38.4693 660.919 37.12C662.385 35.712 664.204 35.008 666.375 35.008C668.545 35.008 670.335 35.712 671.743 37.12C673.209 38.4693 673.943 40.1707 673.943 42.224C673.943 44.2773 673.209 46.008 671.743 47.416C670.335 48.7653 668.545 49.44 666.375 49.44ZM672.447 55.248V104H660.127V55.248H672.447ZM701.275 104.792C697.286 104.792 693.707 104.088 690.539 102.68C687.371 101.213 684.848 99.248 682.971 96.784C681.152 94.32 680.155 91.592 679.979 88.6H692.387C692.622 90.4773 693.531 92.032 695.115 93.264C696.758 94.496 698.782 95.112 701.187 95.112C703.534 95.112 705.352 94.6427 706.643 93.704C707.992 92.7653 708.667 91.5627 708.667 90.096C708.667 88.512 707.846 87.3387 706.203 86.576C704.619 85.7547 702.067 84.8747 698.547 83.936C694.91 83.056 691.918 82.1467 689.571 81.208C687.283 80.2693 685.288 78.832 683.587 76.896C681.944 74.96 681.123 72.3493 681.123 69.064C681.123 66.3653 681.886 63.9013 683.411 61.672C684.995 59.4427 687.224 57.6827 690.099 56.392C693.032 55.1013 696.464 54.456 700.395 54.456C706.203 54.456 710.838 55.9227 714.299 58.856C717.76 61.7307 719.667 65.632 720.019 70.56H708.227C708.051 68.624 707.23 67.0987 705.763 65.984C704.355 64.8107 702.448 64.224 700.043 64.224C697.814 64.224 696.083 64.6347 694.851 65.456C693.678 66.2773 693.091 67.4213 693.091 68.888C693.091 70.5307 693.912 71.792 695.555 72.672C697.198 73.4933 699.75 74.344 703.211 75.224C706.731 76.104 709.635 77.0133 711.923 77.952C714.211 78.8907 716.176 80.3573 717.819 82.352C719.52 84.288 720.4 86.8693 720.459 90.096C720.459 92.912 719.667 95.4347 718.083 97.664C716.558 99.8933 714.328 101.653 711.395 102.944C708.52 104.176 705.147 104.792 701.275 104.792ZM756.028 54.544C759.724 54.544 763.009 55.3653 765.884 57.008C768.759 58.592 770.988 60.968 772.572 64.136C774.215 67.2453 775.036 71 775.036 75.4V104H762.716V77.072C762.716 73.2 761.748 70.2373 759.812 68.184C757.876 66.072 755.236 65.016 751.892 65.016C748.489 65.016 745.791 66.072 743.796 68.184C741.86 70.2373 740.892 73.2 740.892 77.072V104H728.572V38.88H740.892V61.32C742.476 59.208 744.588 57.5653 747.228 56.392C749.868 55.16 752.801 54.544 756.028 54.544Z" fill="#F47922"/>
<circle cx="58" cy="83" r="10" fill="#F47922"/>
</svg>
